# xmcd
# Track frame offsets:
# 150
# 17775
# 34225
# 48445
# 67885
# 86752
# 103970
# 116667
# 136972
# 152780
# 167557
# 183937
#
# Disc length: 2769 seconds
# Revision: 0
# Processed by: cddbd v1.4PL0 Copyright (c) Steve Scherf et al.
# Submitted via: VisiTrax 2.9.5.180 - For more info visit www.synapsa.com
#
DISCID=9e0acf0c
DTITLE=Henrik Launbjerg - Words Youu Don´t  Say
DYEAR=1900
DGENRE=
TTITLE0=Back On The Island
TTITLE1=Only One
TTITLE2=Perfume
TTITLE3=Singin´ In The Car
TTITLE4=Just Friends
TTITLE5=Calling Mr. Romance´s  Heart
TTITLE6=License To Cry
TTITLE7=King Of Sarcasm
TTITLE8=See The Moment
TTITLE9=Teach Me
TTITLE10=If You Love Somebody...
TTITLE11=Making Love
EXTD=
EXTT0=
EXTT1=
EXTT2=
EXTT3=
EXTT4=
EXTT5=
EXTT6=
EXTT7=
EXTT8=
EXTT9=
EXTT10=
EXTT11=
PLAYORDER=
